# xmcd
#
# Track frame offsets:
#	150
#	13006
#	29772
#	46606
#	67583
#	86608
#	103366
#	118886
#	137302
#	154629
#	174083
#
# Disc length: 2625 seconds
# Revision: 4
# Processed by: cddbd v1.5.2PL0 Copyright (c) Steve Scherf et al.
# Submitted via: dBpowerAMP V12.0
#
DISCID=800a3f0b
DTITLE=Various Artist - Do You Know [CDA]
DYEAR=2008
DGENRE=Country*
TTITLE0=Jessica Simpson - Come On Over
TTITLE1=Jessica Simpson - Remember That
TTITLE2=Jessica Simpson - Pray Out Loud
TTITLE3=Jessica Simpson - You're My Sunday
TTITLE4=Jessica Simpson - Sipping On History
TTITLE5=Jessica Simpson - Still Beautiful
TTITLE6=Jessica Simpson - Still Don't Stop Me
TTITLE7=Jessica Simpson - When I Loved You Like That
TTITLE8=Jessica Simpson - Might As Well Be Making Love
TTITLE9=Jessica Simpson - Man Enough
TTITLE10=Jessica Simpson with Dolly Parton - Do You Know 
EXTD=
EXTT0=
EXTT1=
EXTT2=
EXTT3=
EXTT4=
EXTT5=
EXTT6=
EXTT7=
EXTT8=
EXTT9=
EXTT10=
PLAYORDER=
